<svg width="200" height="200" viewBox="0 0 200 200" xmlns="http://www.w3.org/2000/svg">
  <defs>
    <radialGradient id="mercuryGrad" cx="35%" cy="35%" r="65%">
      <stop offset="0%" stop-color="#708090" /> <stop offset="100%" stop-color="#2f4f4f" /> </radialGradient>
    <clipPath id="mercuryClip">
      <circle cx="100" cy="100" r="65" />
    </clipPath>
  </defs>

  <circle cx="100" cy="100" r="65" fill="url(#mercuryGrad)" stroke="#1c1c1c" stroke-width="1"/>

  <g clip-path="url(#mercuryClip)">
    <path d="M40,80 L60,85 L45,100 L55,75 L35,70 L50,65 Z" fill="#8d99ae" opacity="0.6"/>
    <path d="M48,82 L30,90 M48,82 L35,60 M48,82 L65,75" stroke="#8d99ae" stroke-width="2" stroke-linecap="round"/>

    <path d="M140,90 L160,95 L145,110 L155,85 L135,80 L150,75 Z" fill="#8d99ae" opacity="0.6"/>
    <path d="M148,92 L130,100 M148,92 L135,70 M148,92 L165,85" stroke="#8d99ae" stroke-width="2" stroke-linecap="round"/>

    <circle cx="80" cy="130" r="5" fill="#505c66"/>
    <circle cx="110" cy="40" r="3" fill="#505c66"/>
    <circle cx="160" cy="130" r="8" fill="#505c66" opacity="0.5"/>
    
    <path d="M50,40 Q100,60 150,40" fill="none" stroke="#8d99ae" stroke-width="1" opacity="0.3"/>
  </g>

  <ellipse cx="70" cy="60" rx="25" ry="12" fill="white" fill-opacity="0.15" transform="rotate(-45 70 60)"/>
</svg>